<svg xmlns="http://www.w3.org/2000/svg" xmlns:xlink="http://www.w3.org/1999/xlink" contentStyleType="text/css" height="1320px" preserveAspectRatio="none" style="width:955px;height:1320px;background:#FFFFFF;" version="1.1" viewBox="0 0 955 1320" width="955px" zoomAndPan="magnify"><title>Diagramme de cas d'utilisation &#8212; Centre M&#233;dical Protestant de Bafoussam</title><defs/><g><text fill="#1F2D3D" font-family="DejaVu Sans" font-size="18" font-weight="bold" lengthAdjust="spacing" textLength="761.5635" x="90.0784" y="26.708">Diagramme de cas d'utilisation &#8212; Centre M&#233;dical Protestant de Bafoussam</text><!--cluster Site web CMPB--><g id="cluster_Site web CMPB"><rect fill="#FBFCFC" height="1266" rx="3" ry="3" style="stroke:#7F8C8D;stroke-width:1.0;" width="559" x="253" y="48.9531"/><text fill="#1F2D3D" font-family="DejaVu Sans" font-size="13" font-weight="bold" lengthAdjust="spacing" textLength="109.9478" x="477.5261" y="63.02">Site web CMPB</text></g><g id="elem_UC_Home"><ellipse cx="389.3027" cy="784.1137" fill="#F4F7F6" rx="78.8027" ry="18.1605" style="stroke:#1F2D3D;stroke-width:1.0;"/><text fill="#1F2D3D" font-family="DejaVu Sans" font-size="13" lengthAdjust="spacing" textLength="119.374" x="329.6157" y="786.6141">Consulter l'accueil</text></g><g id="elem_UC_Services"><ellipse cx="389.2818" cy="883.9095" fill="#F4F7F6" rx="120.2818" ry="26.4564" style="stroke:#1F2D3D;stroke-width:1.0;"/><text fill="#1F2D3D" font-family="DejaVu Sans" font-size="13" lengthAdjust="spacing" textLength="210.0249" x="284.2694" y="886.41">Consulter les services m&#233;dicaux</text></g><g id="elem_UC_About"><ellipse cx="389.3245" cy="984.018" fill="#F4F7F6" rx="80.8245" ry="18.5649" style="stroke:#1F2D3D;stroke-width:1.0;"/><text fill="#1F2D3D" font-family="DejaVu Sans" font-size="13" lengthAdjust="spacing" textLength="124.0205" x="327.3143" y="986.5185">Consulter &#192; propos</text></g><g id="elem_UC_Rdv"><ellipse cx="389.5193" cy="1168.857" fill="#F4F7F6" rx="95.0193" ry="21.4039" style="stroke:#1F2D3D;stroke-width:1.0;"/><text fill="#1F2D3D" font-family="DejaVu Sans" font-size="13" lengthAdjust="spacing" textLength="155.7651" x="311.6367" y="1171.3575">Prendre un rendez-vous</text></g><g id="elem_UC_Contact"><ellipse cx="389.5175" cy="1271.8566" fill="#F4F7F6" rx="120.0175" ry="26.4035" style="stroke:#1F2D3D;stroke-width:1.0;"/><text fill="#1F2D3D" font-family="DejaVu Sans" font-size="13" lengthAdjust="spacing" textLength="209.4663" x="284.7843" y="1274.3571">Envoyer un message de contact</text></g><g id="elem_UC_Register"><ellipse cx="389.6169" cy="1074.7765" fill="#F4F7F6" rx="74.6169" ry="17.3234" style="stroke:#1F2D3D;stroke-width:1.0;"/><text fill="#1F2D3D" font-family="DejaVu Sans" font-size="13" lengthAdjust="spacing" textLength="109.6177" x="334.808" y="1077.277">Cr&#233;er un compte</text></g><g id="elem_UC_Verify"><ellipse cx="683.0808" cy="1063.0693" fill="#F4F7F6" rx="103.5808" ry="23.1162" style="stroke:#1F2D3D;stroke-width:1.0;"/><text fill="#1F2D3D" font-family="DejaVu Sans" font-size="13" lengthAdjust="spacing" textLength="174.3892" x="595.8862" y="1065.5698">V&#233;rifier son adresse e-mail</text></g><g id="elem_UC_Login"><ellipse cx="682.9518" cy="445.8435" fill="#F4F7F6" rx="64.9518" ry="15.3904" style="stroke:#1F2D3D;stroke-width:1.0;"/><text fill="#1F2D3D" font-family="DejaVu Sans" font-size="13" lengthAdjust="spacing" textLength="85.5474" x="637.1781" y="449.1269">Se connecter</text></g><g id="elem_UC_Espace"><ellipse cx="389.3108" cy="687.9153" fill="#F4F7F6" rx="102.8108" ry="22.9622" style="stroke:#1F2D3D;stroke-width:1.0;"/><text fill="#1F2D3D" font-family="DejaVu Sans" font-size="13" lengthAdjust="spacing" textLength="172.7261" x="302.9477" y="690.4158">Acc&#233;der &#224; l'espace patient</text></g><g id="elem_UC_AdminLogin"><ellipse cx="682.8459" cy="107.9223" fill="#F4F7F6" rx="112.8459" ry="24.9692" style="stroke:#1F2D3D;stroke-width:1.0;"/><text fill="#1F2D3D" font-family="DejaVu Sans" font-size="13" lengthAdjust="spacing" textLength="194.251" x="585.7204" y="110.4228">Se connecter (administration)</text></g><g id="elem_UC_Dashboard"><ellipse cx="389.3218" cy="107.1175" fill="#F4F7F6" rx="108.8218" ry="24.1644" style="stroke:#1F2D3D;stroke-width:1.0;"/><text fill="#1F2D3D" font-family="DejaVu Sans" font-size="13" lengthAdjust="spacing" textLength="185.6563" x="296.4937" y="109.618">Consulter le tableau de bord</text></g><g id="elem_UC_GestRdv"><ellipse cx="389.4265" cy="311.7384" fill="#F4F7F6" rx="89.4265" ry="20.2853" style="stroke:#1F2D3D;stroke-width:1.0;"/><text fill="#1F2D3D" font-family="DejaVu Sans" font-size="13" lengthAdjust="spacing" textLength="143.4126" x="317.7202" y="314.2389">G&#233;rer les rendez-vous</text></g><g id="elem_UC_GestMsg"><ellipse cx="389.3348" cy="406.9201" fill="#F4F7F6" rx="82.8348" ry="18.967" style="stroke:#1F2D3D;stroke-width:1.0;"/><text fill="#1F2D3D" font-family="DejaVu Sans" font-size="13" lengthAdjust="spacing" textLength="128.6035" x="325.0331" y="409.4206">G&#233;rer les messages</text></g><g id="elem_UC_GestSvc"><ellipse cx="389.6669" cy="498.8865" fill="#F4F7F6" rx="77.6669" ry="17.9334" style="stroke:#1F2D3D;stroke-width:1.0;"/><text fill="#1F2D3D" font-family="DejaVu Sans" font-size="13" lengthAdjust="spacing" textLength="116.7461" x="331.2939" y="501.387">G&#233;rer les services</text></g><g id="elem_UC_Visiteurs"><ellipse cx="389.3479" cy="590.9227" fill="#F4F7F6" rx="80.3479" ry="18.4696" style="stroke:#1F2D3D;stroke-width:1.0;"/><text fill="#1F2D3D" font-family="DejaVu Sans" font-size="13" lengthAdjust="spacing" textLength="122.9287" x="327.8836" y="593.4232">Suivre les visiteurs</text></g><g id="elem_UC_Audit"><ellipse cx="389.3824" cy="211.0296" fill="#F4F7F6" rx="113.3824" ry="25.0765" style="stroke:#1F2D3D;stroke-width:1.0;"/><text fill="#1F2D3D" font-family="DejaVu Sans" font-size="13" lengthAdjust="spacing" textLength="195.3936" x="291.6857" y="213.5301">Consulter les journaux d'audit</text></g><!--entity Visiteur--><g id="elem_Visiteur"><ellipse cx="160.2844" cy="954.9531" fill="#0E7C66" rx="8" ry="8" style="stroke:#0B5D4D;stroke-width:0.5;"/><path d="M160.2844,962.9531 L160.2844,989.9531 M147.2844,970.9531 L173.2844,970.9531 M160.2844,989.9531 L147.2844,1004.9531 M160.2844,989.9531 L173.2844,1004.9531 " fill="none" style="stroke:#0B5D4D;stroke-width:0.5;"/><text fill="#14342B" font-family="DejaVu Sans" font-size="13" lengthAdjust="spacing" textLength="49.5688" x="135.5" y="1018.52">Visiteur</text></g><!--entity Patient--><g id="elem_Patient"><ellipse cx="28.9246" cy="658.9531" fill="#0E7C66" rx="8" ry="8" style="stroke:#0B5D4D;stroke-width:0.5;"/><path d="M28.9246,666.9531 L28.9246,693.9531 M15.9246,674.9531 L41.9246,674.9531 M28.9246,693.9531 L15.9246,708.9531 M28.9246,693.9531 L41.9246,708.9531 " fill="none" style="stroke:#0B5D4D;stroke-width:0.5;"/><text fill="#14342B" font-family="DejaVu Sans" font-size="13" lengthAdjust="spacing" textLength="45.8491" x="6" y="722.52">Patient</text></g><!--entity Admin--><g id="elem_Admin"><ellipse cx="160.5659" cy="282.9531" fill="#0E7C66" rx="8" ry="8" style="stroke:#0B5D4D;stroke-width:0.5;"/><path d="M160.5659,290.9531 L160.5659,317.9531 M147.5659,298.9531 L173.5659,298.9531 M160.5659,317.9531 L147.5659,332.9531 M160.5659,317.9531 L173.5659,332.9531 " fill="none" style="stroke:#0B5D4D;stroke-width:0.5;"/><text fill="#14342B" font-family="DejaVu Sans" font-size="13" lengthAdjust="spacing" textLength="97.1318" x="112" y="346.52">Administrateur</text></g><!--entity Mail--><g id="elem_Mail"><ellipse cx="902.3601" cy="1132.4531" fill="#0E7C66" rx="8" ry="8" style="stroke:#0B5D4D;stroke-width:0.5;"/><path d="M902.3601,1140.4531 L902.3601,1167.4531 M889.3601,1148.4531 L915.3601,1148.4531 M902.3601,1167.4531 L889.3601,1182.4531 M902.3601,1167.4531 L915.3601,1182.4531 " fill="none" style="stroke:#0B5D4D;stroke-width:0.5;"/><text fill="#14342B" font-family="DejaVu Sans" font-size="13" lengthAdjust="spacing" textLength="92.7202" x="856" y="1196.02">Service e-mail</text><text fill="#14342B" font-family="DejaVu Sans" font-size="13" lengthAdjust="spacing" textLength="45.3921" x="856" y="1211.1528">(SMTP)</text></g><!--link Patient to Visiteur--><g id="link_Patient_Visiteur"><path d="M52.03,718.2031 C87.89,718.2031 153,718.2031 153,718.2031 C153,718.2031 153,855.1831 153,928.4431 " fill="none" id="Patient-to-Visiteur" style="stroke:#34495E;stroke-width:1.1;"/><polygon fill="none" points="153,946.4431,159,928.4431,147,928.4431,153,946.4431" style="stroke:#34495E;stroke-width:1.1;"/></g><!--link Visiteur to UC_Home--><g id="link_Visiteur_UC_Home"><path d="M169,946.3331 C169,888.4031 169,783.9531 169,783.9531 C169,783.9531 240.99,783.9531 304.21,783.9531 " fill="none" id="Visiteur-to-UC_Home" style="stroke:#34495E;stroke-width:1.1;"/><polygon fill="#34495E" points="310.21,783.9531,301.21,779.9531,305.21,783.9531,301.21,787.9531,310.21,783.9531" style="stroke:#34495E;stroke-width:1.1;"/></g><!--link Visiteur to UC_Services--><g id="link_Visiteur_UC_Services"><path d="M185.8,955.9531 C222.71,955.9531 287,955.9531 287,955.9531 C287,955.9531 287,925.1631 287,904.1731 " fill="none" id="Visiteur-to-UC_Services" style="stroke:#34495E;stroke-width:1.1;"/><polygon fill="#34495E" points="287,898.1731,283,907.1731,287,903.1731,291,907.1731,287,898.1731" style="stroke:#34495E;stroke-width:1.1;"/></g><!--link Visiteur to UC_About--><g id="link_Visiteur_UC_About"><path d="M185.88,983.9531 C215.29,983.9531 259.21,983.9531 302.26,983.9531 " fill="none" id="Visiteur-to-UC_About" style="stroke:#34495E;stroke-width:1.1;"/><polygon fill="#34495E" points="308.26,983.9531,299.26,979.9531,303.26,983.9531,299.26,987.9531,308.26,983.9531" style="stroke:#34495E;stroke-width:1.1;"/></g><!--link Visiteur to UC_Rdv--><g id="link_Visiteur_UC_Rdv"><path d="M185.8,1008.7831 C226.5,1008.7831 302,1008.7831 302,1008.7831 C302,1008.7831 302,1121.0731 302,1154.3431 " fill="none" id="Visiteur-to-UC_Rdv" style="stroke:#34495E;stroke-width:1.1;"/><polygon fill="#34495E" points="302,1160.3431,306,1151.3431,302,1155.3431,298,1151.3431,302,1160.3431" style="stroke:#34495E;stroke-width:1.1;"/></g><!--link Visiteur to UC_Contact--><g id="link_Visiteur_UC_Contact"><path d="M185.71,1015.1231 C220.23,1015.1231 278,1015.1231 278,1015.1231 C278,1015.1231 278,1208.4031 278,1255.8831 " fill="none" id="Visiteur-to-UC_Contact" style="stroke:#34495E;stroke-width:1.1;"/><polygon fill="#34495E" points="278,1261.8831,282,1252.8831,278,1256.8831,274,1252.8831,278,1261.8831" style="stroke:#34495E;stroke-width:1.1;"/></g><!--link Visiteur to UC_Register--><g id="link_Visiteur_UC_Register"><path d="M161,1021.4931 C161,1046.5631 161,1074.9531 161,1074.9531 C161,1074.9531 242.32,1074.9531 309,1074.9531 " fill="none" id="Visiteur-to-UC_Register" style="stroke:#34495E;stroke-width:1.1;"/><polygon fill="#34495E" points="315,1074.9531,306,1070.9531,310,1074.9531,306,1078.9531,315,1074.9531" style="stroke:#34495E;stroke-width:1.1;"/></g><!--link Patient to UC_Login--><g id="link_Patient_UC_Login"><path d="M29,650.4131 C29,581.2731 29,440.7831 29,440.7831 C29,440.7831 452.67,440.7831 615.47,440.7831 " fill="none" id="Patient-to-UC_Login" style="stroke:#34495E;stroke-width:1.1;"/><polygon fill="#34495E" points="621.47,440.7831,612.47,436.7831,616.47,440.7831,612.47,444.7831,621.47,440.7831" style="stroke:#34495E;stroke-width:1.1;"/></g><!--link Patient to UC_Espace--><g id="link_Patient_UC_Espace"><path d="M52.1,687.9531 C98.41,687.9531 199.11,687.9531 280.21,687.9531 " fill="none" id="Patient-to-UC_Espace" style="stroke:#34495E;stroke-width:1.1;"/><polygon fill="#34495E" points="286.21,687.9531,277.21,683.9531,281.21,687.9531,277.21,691.9531,286.21,687.9531" style="stroke:#34495E;stroke-width:1.1;"/></g><!--link Admin to UC_AdminLogin--><g id="link_Admin_UC_AdminLogin"><path d="M209.27,285.7831 C318.84,285.7831 575,285.7831 575,285.7831 C575,285.7831 575,155.6331 575,121.5931 " fill="none" id="Admin-to-UC_AdminLogin" style="stroke:#34495E;stroke-width:1.1;"/><polygon fill="#34495E" points="575,115.5931,571,124.5931,575,120.5931,579,124.5931,575,115.5931" style="stroke:#34495E;stroke-width:1.1;"/></g><!--link Admin to UC_Dashboard--><g id="link_Admin_UC_Dashboard"><path d="M161,274.3531 C161,215.1731 161,106.9531 161,106.9531 C161,106.9531 215.52,106.9531 274.27,106.9531 " fill="none" id="Admin-to-UC_Dashboard" style="stroke:#34495E;stroke-width:1.1;"/><polygon fill="#34495E" points="280.27,106.9531,271.27,102.9531,275.27,106.9531,271.27,110.9531,280.27,106.9531" style="stroke:#34495E;stroke-width:1.1;"/></g><!--link Admin to UC_GestRdv--><g id="link_Admin_UC_GestRdv"><path d="M209.07,311.9531 C235.45,311.9531 262.93,311.9531 293.87,311.9531 " fill="none" id="Admin-to-UC_GestRdv" style="stroke:#34495E;stroke-width:1.1;"/><polygon fill="#34495E" points="299.87,311.9531,290.87,307.9531,294.87,311.9531,290.87,315.9531,299.87,311.9531" style="stroke:#34495E;stroke-width:1.1;"/></g><!--link Admin to UC_GestMsg--><g id="link_Admin_UC_GestMsg"><path d="M204,349.5031 C204,376.0531 204,406.9531 204,406.9531 C204,406.9531 250.93,406.9531 300.25,406.9531 " fill="none" id="Admin-to-UC_GestMsg" style="stroke:#34495E;stroke-width:1.1;"/><polygon fill="#34495E" points="306.25,406.9531,297.25,402.9531,301.25,406.9531,297.25,410.9531,306.25,406.9531" style="stroke:#34495E;stroke-width:1.1;"/></g><!--link Admin to UC_GestSvc--><g id="link_Admin_UC_GestSvc"><path d="M198,349.7931 C198,404.4331 198,498.9531 198,498.9531 C198,498.9531 252.8,498.9531 305.89,498.9531 " fill="none" id="Admin-to-UC_GestSvc" style="stroke:#34495E;stroke-width:1.1;"/><polygon fill="#34495E" points="311.89,498.9531,302.89,494.9531,306.89,498.9531,302.89,502.9531,311.89,498.9531" style="stroke:#34495E;stroke-width:1.1;"/></g><!--link Admin to UC_Visiteurs--><g id="link_Admin_UC_Visiteurs"><path d="M192,349.5831 C192,425.7331 192,590.9531 192,590.9531 C192,590.9531 248.27,590.9531 302.88,590.9531 " fill="none" id="Admin-to-UC_Visiteurs" style="stroke:#34495E;stroke-width:1.1;"/><polygon fill="#34495E" points="308.88,590.9531,299.88,586.9531,303.88,590.9531,299.88,594.9531,308.88,590.9531" style="stroke:#34495E;stroke-width:1.1;"/></g><!--link Admin to UC_Audit--><g id="link_Admin_UC_Audit"><path d="M209.22,280.1231 C243.02,280.1231 282,280.1231 282,280.1231 C282,280.1231 282,243.4831 282,225.1631 " fill="none" id="Admin-to-UC_Audit" style="stroke:#34495E;stroke-width:1.1;"/><polygon fill="#34495E" points="282,219.1631,278,228.1631,282,224.1631,286,228.1631,282,219.1631" style="stroke:#34495E;stroke-width:1.1;"/></g><!--link UC_Register to UC_Verify--><g id="link_UC_Register_UC_Verify"><path d="M462.81,1071.7031 C500.41,1071.7031 540.69,1071.7031 581.1,1071.7031 " fill="none" id="UC_Register-to-UC_Verify" style="stroke:#34495E;stroke-width:1.1;stroke-dasharray:7.0,7.0;"/><polygon fill="#34495E" points="587.1,1071.7031,578.1,1067.7031,582.1,1071.7031,578.1,1075.7031,587.1,1071.7031" style="stroke:#34495E;stroke-width:1.1;"/><text fill="#2C3E50" font-family="DejaVu Sans" font-size="12" lengthAdjust="spacing" textLength="58.1602" x="465.95" y="1083.8418">&#171;include&#187;</text></g><!--link UC_Espace to UC_Login--><g id="link_UC_Espace_UC_Login"><path d="M486,679.8031 C486,638.1531 486,451.1231 486,451.1231 C486,451.1231 557.68,451.1231 615.48,451.1231 " fill="none" id="UC_Espace-to-UC_Login" style="stroke:#34495E;stroke-width:1.1;stroke-dasharray:7.0,7.0;"/><polygon fill="#34495E" points="621.48,451.1231,612.48,447.1231,616.48,451.1231,612.48,455.1231,621.48,451.1231" style="stroke:#34495E;stroke-width:1.1;"/><text fill="#2C3E50" font-family="DejaVu Sans" font-size="12" lengthAdjust="spacing" textLength="58.1602" x="487" y="509.8618">&#171;include&#187;</text></g><!--link UC_Dashboard to UC_AdminLogin--><g id="link_UC_Dashboard_UC_AdminLogin"><path d="M498.79,106.9531 C521.93,106.9531 540.41,106.9531 563.7,106.9531 " fill="none" id="UC_Dashboard-to-UC_AdminLogin" style="stroke:#34495E;stroke-width:1.1;stroke-dasharray:7.0,7.0;"/><polygon fill="#34495E" points="569.7,106.9531,560.7,102.9531,564.7,106.9531,560.7,110.9531,569.7,106.9531" style="stroke:#34495E;stroke-width:1.1;"/><text fill="#2C3E50" font-family="DejaVu Sans" font-size="12" lengthAdjust="spacing" textLength="58.1602" x="475.24" y="119.0918">&#171;include&#187;</text></g><!--link UC_Rdv to Mail--><g id="link_UC_Rdv_Mail"><path d="M484.79,1168.9531 C595.04,1168.9531 766.12,1168.9531 849.81,1168.9531 " fill="none" id="UC_Rdv-to-Mail" style="stroke:#34495E;stroke-width:1.1;stroke-dasharray:7.0,7.0;"/><polygon fill="#34495E" points="855.81,1168.9531,846.81,1164.9531,850.81,1168.9531,846.81,1172.9531,855.81,1168.9531" style="stroke:#34495E;stroke-width:1.1;"/><text fill="#2C3E50" font-family="DejaVu Sans" font-size="12" lengthAdjust="spacing" textLength="58.1602" x="611.3" y="1181.0918">&#171;include&#187;</text></g><!--link UC_Contact to Mail--><g id="link_UC_Contact_Mail"><path d="M497,1260.1231 C497,1240.2231 497,1202.2031 497,1202.2031 C497,1202.2031 743.47,1202.2031 849.98,1202.2031 " fill="none" id="UC_Contact-to-Mail" style="stroke:#34495E;stroke-width:1.1;stroke-dasharray:7.0,7.0;"/><polygon fill="#34495E" points="855.98,1202.2031,846.98,1198.2031,850.98,1202.2031,846.98,1206.2031,855.98,1202.2031" style="stroke:#34495E;stroke-width:1.1;"/><text fill="#2C3E50" font-family="DejaVu Sans" font-size="12" lengthAdjust="spacing" textLength="58.1602" x="588.53" y="1214.3418">&#171;include&#187;</text></g><!--link UC_Verify to Mail--><g id="link_UC_Verify_Mail"><path d="M786.56,1062.9531 C843.62,1062.9531 903,1062.9531 903,1062.9531 C903,1062.9531 903,1088.8831 903,1117.6931 " fill="none" id="UC_Verify-to-Mail" style="stroke:#34495E;stroke-width:1.1;stroke-dasharray:7.0,7.0;"/><polygon fill="#34495E" points="903,1123.6931,907,1114.6931,903,1118.6931,899,1114.6931,903,1123.6931" style="stroke:#34495E;stroke-width:1.1;"/><text fill="#2C3E50" font-family="DejaVu Sans" font-size="12" lengthAdjust="spacing" textLength="58.1602" x="816.15" y="1075.0918">&#171;include&#187;</text></g><!--SRC=[VLHBRjim4Dtp55DlaYpi0nI10CS9qaKD67NhLO62biOA2uaK-57hVe0SeWVeDkVmJNgI3YLHNpixwSsRuUYzHxqHCivSWc3iCSD5uVACMM4pX7l1Kytp786gCJUGN3ahCc6u5Kh2l-S_i49fDSBwz9A8c6UmqSgYiLnQttF73yePmtEMuS62LQ15-aGbeJ7sCnZZiLKQPZjXX4MdPq37X9TGtD1vT4vLQvv3QPdaGWfZDM-xAoZKjwXB4IFWFESY-oolj-kFcvkAjoQ0iMOUpEU_ekvWvlVZCYKHPbk2u1lkORNUtCtW9mDm1aaEggsKD2wpg26xud7iK6JLx4-hB-zKZXUeQC3KUnd8Q-NSzz3NR6pEzvwUeT2gK2RGbtlbR9-xqIWJiiH9y4_uOrwI1u7-8Idxv0TPgYED9NAEP5HQMwsa9Vr2pwf-7IoaJozrMwpomc8x7bCo0tMVkpkzQ74GH3SK6awx6HCC2Nqx9CgntxMjrf1a0-h0UgzIShP7MiOnoUTb-Ki6e2auMLtqqa9D3nNABis6Qzv5Y19vqmhhuSc9VHV1yds6t7d9zaedeVEUcwUzuZhfDpwI2ettPsnvf3ipigRNq5WpOAzDUe4TejLdRyju880J9KN4iyicyYqzt05pERnVbTEI8al_0-uIqKgzz2_iDsDX1jsggBqBOx0D-hXGHtgCUdd6M4ZcX1jYsBlUKPUW4HWIKZdUBj7PFy0xSmTmC702UfyceBTZ07QY3vUe16MzBuB58kek3Bo5szlcznr5hFsMmAhsdvBQRmYyxcD7P5OBN_7y_t8wgx7W5KQpwdd2Vm00]--></g></svg>